# xmcd
#
# Track frame offsets:
#	150
#	13708
#	27738
#	42436
#	64308
#	76607
#	98403
#	112108
#	124977
#	141050
#	156482
#	172670
#	191779
#	205976
#	226366
#	242727
#	252288
#	267405
#	279729
#	298214
#
# Disc length: 4177 seconds
#
# Revision: 0
# Processed by: cddbd v1.5.2PL0 Copyright (c) Steve Scherf et al.
# Submitted via: dBpowerAMP V4.0
#
DISCID=2c104f14
DTITLE=Merle Haggard - The Original Outlaw [CD 3)
DYEAR=2007
DGENRE=Country
TTITLE0=Big City
TTITLE1=My Favorite Memory
TTITLE2=Yesterday's Wine (Merle Haggard And George Jones)
TTITLE3=Going Where The Lonely Go
TTITLE4=You Take Me For Granted
TTITLE5=Pancho And Lefte (Willie Nelson And Merle Haggard
TTITLE6=That's The Way Love Goes
TTITLE7=Let's Chase Each Other Around The Room
TTITLE8=Someday When Things Are Good
TTITLE9=Twinkly, Twinkle Lucky Star
TTITLE10=What Am I Gonna Do (With The Rest Of My Life)
TTITLE11=Are The Good Times Really Over (I Wish A Buck Was Still Silver)
TTITLE12=Natural High (Merle Haggard With Janie Fricke
TTITLE13=Out Among The Stars
TTITLE14=A Place To Fall Apart (Merle Haggard With Janie Fricke)
TTITLE15=Lonesome Day
TTITLE16=Wishing All These Old Things Were New
TTITLE17=America First
TTITLE18=Some Of Us Fly (Merle Haggard And Toby Keith)
TTITLE19=Haggard (Like I've Never Been Before)
EXTD=
EXTT0=
EXTT1=
EXTT2=
EXTT3=
EXTT4=
EXTT5=
EXTT6=
EXTT7=
EXTT8=
EXTT9=
EXTT10=
EXTT11=
EXTT12=
EXTT13=
EXTT14=
EXTT15=
EXTT16=
EXTT17=
EXTT18=
EXTT19=
PLAYORDER=
